{
    "asset" : {
        "generator" : "Khronos glTF Blender I/O v1.6.16",
        "version" : "2.0"
    },
    "scene" : 0,
    "scenes" : [
        {
            "name" : "Scene",
            "nodes" : [
                0
            ]
        }
    ],
    "nodes" : [
        {
            "mesh" : 0,
            "name" : "\u5e73\u9762"
        }
    ],
    "materials" : [
        {
            "doubleSided" : true,
            "name" : "\u30de\u30c6\u30ea\u30a2\u30eb",
            "normalTexture" : {
                "index" : 0
            },
            "occlusionTexture" : {
                "index" : 1
            },
            "pbrMetallicRoughness" : {
                "baseColorTexture" : {
                    "index" : 2
                },
                "metallicFactor" : 0,
                "metallicRoughnessTexture" : {
                    "index" : 1
                }
            }
        }
    ],
    "meshes" : [
        {
            "name" : "\u5e73\u9762.001",
            "primitives" : [
                {
                    "attributes" : {
                        "POSITION" : 0,
                        "NORMAL" : 1,
                        "TEXCOORD_0" : 2
                    },
                    "indices" : 3,
                    "material" : 0
                }
            ]
        }
    ],
    "textures" : [
        {
            "sampler" : 0,
            "source" : 0
        },
        {
            "sampler" : 0,
            "source" : 1
        },
        {
            "sampler" : 0,
            "source" : 2
        }
    ],
    "images" : [
        {
            "mimeType" : "image/png",
            "name" : "dirt_floor_nor_dx_1k",
            "uri" : "dirt_floor_nor_dx_1k.png"
        },
        {
            "mimeType" : "image/png",
            "name" : "dirt_floor_arm_1k",
            "uri" : "dirt_floor_arm_1k.png"
        },
        {
            "mimeType" : "image/png",
            "name" : "dirt_floor_diff_1k",
            "uri" : "dirt_floor_diff_1k.png"
        }
    ],
    "accessors" : [
        {
            "bufferView" : 0,
            "componentType" : 5126,
            "count" : 1096,
            "max" : [
                1.2901917695999146,
                0.24755650758743286,
                1.5026217699050903
            ],
            "min" : [
                -1.4219293594360352,
                -0.11985770612955093,
                -1.3549174070358276
            ],
            "type" : "VEC3"
        },
        {
            "bufferView" : 1,
            "componentType" : 5126,
            "count" : 1096,
            "type" : "VEC3"
        },
        {
            "bufferView" : 2,
            "componentType" : 5126,
            "count" : 1096,
            "type" : "VEC2"
        },
        {
            "bufferView" : 3,
            "componentType" : 5123,
            "count" : 2142,
            "type" : "SCALAR"
        }
    ],
    "bufferViews" : [
        {
            "buffer" : 0,
            "byteLength" : 13152,
            "byteOffset" : 0
        },
        {
            "buffer" : 0,
            "byteLength" : 13152,
            "byteOffset" : 13152
        },
        {
            "buffer" : 0,
            "byteLength" : 8768,
            "byteOffset" : 26304
        },
        {
            "buffer" : 0,
            "byteLength" : 4284,
            "byteOffset" : 35072
        }
    ],
    "samplers" : [
        {
            "magFilter" : 9729,
            "minFilter" : 9987
        }
    ],
    "buffers" : [
        {
            "byteLength" : 39356,
            "uri" : "floor_impact.bin"
        }
    ]
}
