{
    "asset" : {
        "generator" : "Khronos glTF Blender I/O v1.6.16",
        "version" : "2.0"
    },
    "scene" : 0,
    "scenes" : [
        {
            "name" : "Scene",
            "nodes" : [
                0
            ]
        }
    ],
    "nodes" : [
        {
            "mesh" : 0,
            "name" : "\u5186"
        }
    ],
    "meshes" : [
        {
            "name" : "\u5186.002",
            "primitives" : [
                {
                    "attributes" : {
                        "POSITION" : 0,
                        "NORMAL" : 1,
                        "TANGENT" : 2,
                        "TEXCOORD_0" : 3
                    },
                    "indices" : 4
                }
            ]
        }
    ],
    "accessors" : [
        {
            "bufferView" : 0,
            "componentType" : 5126,
            "count" : 49,
            "max" : [
                0.5,
                0,
                0.5
            ],
            "min" : [
                -0.5,
                0,
                -0.5
            ],
            "type" : "VEC3"
        },
        {
            "bufferView" : 1,
            "componentType" : 5126,
            "count" : 49,
            "type" : "VEC3"
        },
        {
            "bufferView" : 2,
            "componentType" : 5126,
            "count" : 49,
            "type" : "VEC4"
        },
        {
            "bufferView" : 3,
            "componentType" : 5126,
            "count" : 49,
            "type" : "VEC2"
        },
        {
            "bufferView" : 4,
            "componentType" : 5123,
            "count" : 96,
            "type" : "SCALAR"
        }
    ],
    "bufferViews" : [
        {
            "buffer" : 0,
            "byteLength" : 588,
            "byteOffset" : 0
        },
        {
            "buffer" : 0,
            "byteLength" : 588,
            "byteOffset" : 588
        },
        {
            "buffer" : 0,
            "byteLength" : 784,
            "byteOffset" : 1176
        },
        {
            "buffer" : 0,
            "byteLength" : 392,
            "byteOffset" : 1960
        },
        {
            "buffer" : 0,
            "byteLength" : 192,
            "byteOffset" : 2352
        }
    ],
    "buffers" : [
        {
            "byteLength" : 2544,
            "uri" : "circle.bin"
        }
    ]
}
