{
    "asset" : {
        "generator" : "Khronos glTF Blender I/O v1.6.16",
        "version" : "2.0"
    },
    "scene" : 0,
    "scenes" : [
        {
            "name" : "Scene",
            "nodes" : [
                0
            ]
        }
    ],
    "nodes" : [
        {
            "mesh" : 0,
            "name" : "rock.003"
        }
    ],
    "materials" : [
        {
            "doubleSided" : true,
            "name" : "\u30de\u30c6\u30ea\u30a2\u30eb",
            "normalTexture" : {
                "index" : 0
            },
            "occlusionTexture" : {
                "index" : 1
            },
            "pbrMetallicRoughness" : {
                "baseColorTexture" : {
                    "index" : 2
                },
                "metallicRoughnessTexture" : {
                    "index" : 1
                }
            }
        }
    ],
    "meshes" : [
        {
            "name" : "rock.003",
            "primitives" : [
                {
                    "attributes" : {
                        "POSITION" : 0,
                        "NORMAL" : 1,
                        "TEXCOORD_0" : 2
                    },
                    "indices" : 3,
                    "material" : 0
                }
            ]
        }
    ],
    "textures" : [
        {
            "sampler" : 0,
            "source" : 0
        },
        {
            "sampler" : 0,
            "source" : 1
        },
        {
            "sampler" : 0,
            "source" : 2
        }
    ],
    "images" : [
        {
            "mimeType" : "image/png",
            "name" : "rock_wall_02_nor_dx_256",
            "uri" : "rock_wall_02_nor_dx_256.png"
        },
        {
            "mimeType" : "image/png",
            "name" : "rock_wall_02_arm_256",
            "uri" : "rock_wall_02_arm_256.png"
        },
        {
            "mimeType" : "image/png",
            "name" : "rock_wall_02_diff_256",
            "uri" : "rock_wall_02_diff_256.png"
        }
    ],
    "accessors" : [
        {
            "bufferView" : 0,
            "componentType" : 5126,
            "count" : 139,
            "max" : [
                0.33649465441703796,
                0.3394613265991211,
                0.3526684045791626
            ],
            "min" : [
                -0.34984445571899414,
                -0.41701531410217285,
                -0.2466973066329956
            ],
            "type" : "VEC3"
        },
        {
            "bufferView" : 1,
            "componentType" : 5126,
            "count" : 139,
            "type" : "VEC3"
        },
        {
            "bufferView" : 2,
            "componentType" : 5126,
            "count" : 139,
            "type" : "VEC2"
        },
        {
            "bufferView" : 3,
            "componentType" : 5123,
            "count" : 528,
            "type" : "SCALAR"
        }
    ],
    "bufferViews" : [
        {
            "buffer" : 0,
            "byteLength" : 1668,
            "byteOffset" : 0
        },
        {
            "buffer" : 0,
            "byteLength" : 1668,
            "byteOffset" : 1668
        },
        {
            "buffer" : 0,
            "byteLength" : 1112,
            "byteOffset" : 3336
        },
        {
            "buffer" : 0,
            "byteLength" : 1056,
            "byteOffset" : 4448
        }
    ],
    "samplers" : [
        {
            "magFilter" : 9729,
            "minFilter" : 9987
        }
    ],
    "buffers" : [
        {
            "byteLength" : 5504,
            "uri" : "rock3.bin"
        }
    ]
}
