{
    "asset" : {
        "generator" : "Khronos glTF Blender I/O v1.6.16",
        "version" : "2.0"
    },
    "scene" : 0,
    "scenes" : [
        {
            "name" : "Scene",
            "nodes" : [
                0
            ]
        }
    ],
    "nodes" : [
        {
            "mesh" : 0,
            "name" : "rock.003"
        }
    ],
    "materials" : [
        {
            "doubleSided" : true,
            "name" : "\u30de\u30c6\u30ea\u30a2\u30eb",
            "normalTexture" : {
                "index" : 0
            },
            "occlusionTexture" : {
                "index" : 1
            },
            "pbrMetallicRoughness" : {
                "baseColorTexture" : {
                    "index" : 2
                },
                "metallicRoughnessTexture" : {
                    "index" : 1
                }
            }
        }
    ],
    "meshes" : [
        {
            "name" : "rock.003",
            "primitives" : [
                {
                    "attributes" : {
                        "POSITION" : 0,
                        "NORMAL" : 1,
                        "TANGENT" : 2,
                        "TEXCOORD_0" : 3
                    },
                    "indices" : 4,
                    "material" : 0
                }
            ]
        }
    ],
    "textures" : [
        {
            "sampler" : 0,
            "source" : 0
        },
        {
            "sampler" : 0,
            "source" : 1
        },
        {
            "sampler" : 0,
            "source" : 2
        }
    ],
    "images" : [
        {
            "mimeType" : "image/png",
            "name" : "rock_wall_02_nor_dx_256",
            "uri" : "rock_wall_02_nor_dx_256.png"
        },
        {
            "mimeType" : "image/png",
            "name" : "rock_wall_02_arm_256",
            "uri" : "rock_wall_02_arm_256.png"
        },
        {
            "mimeType" : "image/png",
            "name" : "rock_wall_02_diff_256",
            "uri" : "rock_wall_02_diff_256.png"
        }
    ],
    "accessors" : [
        {
            "bufferView" : 0,
            "componentType" : 5126,
            "count" : 213,
            "max" : [
                0.2967354357242584,
                0.497648686170578,
                0.3903057873249054
            ],
            "min" : [
                -0.28403857350349426,
                -0.5262051820755005,
                -0.3110480308532715
            ],
            "type" : "VEC3"
        },
        {
            "bufferView" : 1,
            "componentType" : 5126,
            "count" : 213,
            "type" : "VEC3"
        },
        {
            "bufferView" : 2,
            "componentType" : 5126,
            "count" : 213,
            "type" : "VEC4"
        },
        {
            "bufferView" : 3,
            "componentType" : 5126,
            "count" : 213,
            "type" : "VEC2"
        },
        {
            "bufferView" : 4,
            "componentType" : 5123,
            "count" : 864,
            "type" : "SCALAR"
        }
    ],
    "bufferViews" : [
        {
            "buffer" : 0,
            "byteLength" : 2556,
            "byteOffset" : 0
        },
        {
            "buffer" : 0,
            "byteLength" : 2556,
            "byteOffset" : 2556
        },
        {
            "buffer" : 0,
            "byteLength" : 3408,
            "byteOffset" : 5112
        },
        {
            "buffer" : 0,
            "byteLength" : 1704,
            "byteOffset" : 8520
        },
        {
            "buffer" : 0,
            "byteLength" : 1728,
            "byteOffset" : 10224
        }
    ],
    "samplers" : [
        {
            "magFilter" : 9729,
            "minFilter" : 9987
        }
    ],
    "buffers" : [
        {
            "byteLength" : 11952,
            "uri" : "rock.bin"
        }
    ]
}
