{
    "asset" : {
        "generator" : "Khronos glTF Blender I/O v1.6.16",
        "version" : "2.0"
    },
    "scene" : 0,
    "scenes" : [
        {
            "name" : "Scene",
            "nodes" : [
                0
            ]
        }
    ],
    "nodes" : [
        {
            "mesh" : 0,
            "name" : "Paladin_J_Nordstrom"
        }
    ],
    "materials" : [
        {
            "doubleSided" : true,
            "name" : "Paladin_MAT",
            "normalTexture" : {
                "index" : 0
            },
            "pbrMetallicRoughness" : {
                "metallicFactor" : 0.5,
                "roughnessFactor" : 0.5527864098548889
            }
        }
    ],
    "meshes" : [
        {
            "name" : "Paladin_J_Nordstrom",
            "primitives" : [
                {
                    "attributes" : {
                        "POSITION" : 0,
                        "NORMAL" : 1,
                        "TANGENT" : 2,
                        "TEXCOORD_0" : 3
                    },
                    "indices" : 4,
                    "material" : 0
                }
            ]
        }
    ],
    "textures" : [
        {
            "sampler" : 0,
            "source" : 0
        }
    ],
    "images" : [
        {
            "mimeType" : "image/png",
            "name" : "Paladin_normal",
            "uri" : "Paladin_normal.png"
        }
    ],
    "accessors" : [
        {
            "bufferView" : 0,
            "componentType" : 5126,
            "count" : 225,
            "max" : [
                0.11965424567461014,
                0.030566178262233734,
                0.821173369884491
            ],
            "min" : [
                -0.11929105222225189,
                -0.030727863311767578,
                -0.22756455838680267
            ],
            "type" : "VEC3"
        },
        {
            "bufferView" : 1,
            "componentType" : 5126,
            "count" : 225,
            "type" : "VEC3"
        },
        {
            "bufferView" : 2,
            "componentType" : 5126,
            "count" : 225,
            "type" : "VEC4"
        },
        {
            "bufferView" : 3,
            "componentType" : 5126,
            "count" : 225,
            "type" : "VEC2"
        },
        {
            "bufferView" : 4,
            "componentType" : 5123,
            "count" : 684,
            "type" : "SCALAR"
        }
    ],
    "bufferViews" : [
        {
            "buffer" : 0,
            "byteLength" : 2700,
            "byteOffset" : 0
        },
        {
            "buffer" : 0,
            "byteLength" : 2700,
            "byteOffset" : 2700
        },
        {
            "buffer" : 0,
            "byteLength" : 3600,
            "byteOffset" : 5400
        },
        {
            "buffer" : 0,
            "byteLength" : 1800,
            "byteOffset" : 9000
        },
        {
            "buffer" : 0,
            "byteLength" : 1368,
            "byteOffset" : 10800
        }
    ],
    "samplers" : [
        {
            "magFilter" : 9729,
            "minFilter" : 9987
        }
    ],
    "buffers" : [
        {
            "byteLength" : 12168,
            "uri" : "sword1.bin"
        }
    ]
}
