{
    "asset" : {
        "generator" : "Khronos glTF Blender I/O v1.6.16",
        "version" : "2.0"
    },
    "scene" : 0,
    "scenes" : [
        {
            "name" : "Scene",
            "nodes" : [
                2
            ]
        }
    ],
    "nodes" : [
        {
            "mesh" : 0,
            "name" : "Object_2"
        },
        {
            "children" : [
                0
            ],
            "name" : "Potion.obj.cleaner.materialmerger.gles"
        },
        {
            "children" : [
                1
            ],
            "name" : "Sketchfab_model",
            "rotation" : [
                -0.7071068286895752,
                0,
                0,
                0.7071068286895752
            ]
        }
    ],
    "materials" : [
        {
            "name" : "Main",
            "normalTexture" : {
                "index" : 0
            },
            "occlusionTexture" : {
                "index" : 1,
                "strength" : 0.4881565570831299
            },
            "pbrMetallicRoughness" : {
                "baseColorTexture" : {
                    "index" : 2
                },
                "metallicRoughnessTexture" : {
                    "index" : 1
                }
            }
        }
    ],
    "meshes" : [
        {
            "name" : "Object_0",
            "primitives" : [
                {
                    "attributes" : {
                        "POSITION" : 0,
                        "NORMAL" : 1,
                        "TANGENT" : 2,
                        "TEXCOORD_0" : 3
                    },
                    "indices" : 4,
                    "material" : 0
                }
            ]
        }
    ],
    "textures" : [
        {
            "sampler" : 0,
            "source" : 0
        },
        {
            "sampler" : 0,
            "source" : 1
        },
        {
            "sampler" : 0,
            "source" : 2
        }
    ],
    "images" : [
        {
            "mimeType" : "image/jpeg",
            "name" : "Main_normal",
            "uri" : "Main_normal.jpg"
        },
        {
            "mimeType" : "image/png",
            "name" : "Main_metallicRoughness",
            "uri" : "Main_metallicRoughness.png"
        },
        {
            "mimeType" : "image/jpeg",
            "name" : "Main_baseColor",
            "uri" : "Main_baseColor.jpg"
        }
    ],
    "accessors" : [
        {
            "bufferView" : 0,
            "componentType" : 5126,
            "count" : 15332,
            "max" : [
                0.21259719133377075,
                0.21259722113609314,
                0.5681801438331604
            ],
            "min" : [
                -0.21204546093940735,
                -0.2123917192220688,
                0
            ],
            "type" : "VEC3"
        },
        {
            "bufferView" : 1,
            "componentType" : 5126,
            "count" : 15332,
            "type" : "VEC3"
        },
        {
            "bufferView" : 2,
            "componentType" : 5126,
            "count" : 15332,
            "type" : "VEC4"
        },
        {
            "bufferView" : 3,
            "componentType" : 5126,
            "count" : 15332,
            "type" : "VEC2"
        },
        {
            "bufferView" : 4,
            "componentType" : 5123,
            "count" : 43587,
            "type" : "SCALAR"
        }
    ],
    "bufferViews" : [
        {
            "buffer" : 0,
            "byteLength" : 183984,
            "byteOffset" : 0
        },
        {
            "buffer" : 0,
            "byteLength" : 183984,
            "byteOffset" : 183984
        },
        {
            "buffer" : 0,
            "byteLength" : 245312,
            "byteOffset" : 367968
        },
        {
            "buffer" : 0,
            "byteLength" : 122656,
            "byteOffset" : 613280
        },
        {
            "buffer" : 0,
            "byteLength" : 87174,
            "byteOffset" : 735936
        }
    ],
    "samplers" : [
        {
            "magFilter" : 9729,
            "minFilter" : 9987
        }
    ],
    "buffers" : [
        {
            "byteLength" : 823112,
            "uri" : "bottle.bin"
        }
    ]
}
